<svg width="98" height="98" viewBox="0 0 98 98" fill="none" xmlns="http://www.w3.org/2000/svg">
<path d="M8.16663 89.8343H89.8333M25.97 71.0504L16.3333 69.4171L8.16663 53.0838L12.6583 50.8379C13.7982 50.2635 15.0569 49.9643 16.3333 49.9643C17.6097 49.9643 18.8684 50.2635 20.0083 50.8379L20.7025 51.2463C21.8424 51.8207 23.101 52.1199 24.3775 52.1199C25.6539 52.1199 26.9126 51.8207 28.0525 51.2463L32.6666 49.0004L20.4166 24.5004L24.0916 22.6629C25.45 21.9947 26.9675 21.7171 28.4745 21.8614C29.9815 22.0056 31.4188 22.5658 32.6258 23.4796L49.0408 35.7296C50.252 36.6513 51.6967 37.2161 53.2119 37.3604C54.727 37.5047 56.2524 37.2227 57.6158 36.5463L74.725 28.1346C76.9113 27.0325 79.43 26.785 81.7891 27.4404L85.75 28.5838C86.5683 28.811 87.3258 29.2178 87.9672 29.7745C88.6087 30.3312 89.118 31.0238 89.4583 31.802C89.7985 32.5802 89.961 33.4245 89.9341 34.2734C89.9071 35.1223 89.6914 35.9545 89.3025 36.7096L87.7508 39.8129C86.8116 41.6913 85.3008 43.2429 83.3816 44.2229L30.9516 70.2338C29.4099 70.9974 27.6665 71.2546 25.97 70.9688V71.0504Z" stroke="#5C2574" stroke-width="8.16667" stroke-linecap="round" stroke-linejoin="round"/>
</svg>
