<svg width="98" height="98" viewBox="0 0 98 98" fill="none" xmlns="http://www.w3.org/2000/svg">
<path d="M89.8333 40.8337C89.8333 38.2612 88.6083 35.852 86.5666 34.3003L53.9 9.80033C52.4863 8.74011 50.767 8.16699 49 8.16699C47.2329 8.16699 45.5136 8.74011 44.1 9.80033L11.4333 34.3003C10.419 35.061 9.5958 36.0474 9.0288 37.1814C8.46181 38.3154 8.16663 39.5658 8.16663 40.8337M89.8333 40.8337V81.667C89.8333 83.8329 88.9729 85.9101 87.4413 87.4417C85.9098 88.9732 83.8326 89.8337 81.6666 89.8337H16.3333C14.1674 89.8337 12.0901 88.9732 10.5586 87.4417C9.02704 85.9101 8.16663 83.8329 8.16663 81.667V40.8337M89.8333 40.8337L53.2058 64.1087C51.9451 64.8985 50.4876 65.3174 49 65.3174C47.5123 65.3174 46.0548 64.8985 44.7941 64.1087L8.16663 40.8337" stroke="#5C2574" stroke-width="8.25" stroke-linecap="round" stroke-linejoin="round"/>
</svg>
