<svg width="84" height="94" viewBox="0 0 84 94" fill="none" xmlns="http://www.w3.org/2000/svg">
<path d="M21.5833 38.8337V26.5837C21.5833 21.1688 23.7344 15.9758 27.5632 12.1469C31.3921 8.31803 36.5852 6.16699 42 6.16699C47.4148 6.16699 52.6079 8.31803 56.4368 12.1469C60.2656 15.9758 62.4167 21.1688 62.4167 26.5837V38.8337M46.0833 63.3337C46.0833 65.5888 44.2552 67.417 42 67.417C39.7448 67.417 37.9167 65.5888 37.9167 63.3337C37.9167 61.0785 39.7448 59.2503 42 59.2503C44.2552 59.2503 46.0833 61.0785 46.0833 63.3337ZM13.4167 38.8337H70.5833C75.0937 38.8337 78.75 42.49 78.75 47.0003V79.667C78.75 84.1773 75.0937 87.8337 70.5833 87.8337H13.4167C8.90634 87.8337 5.25 84.1773 5.25 79.667V47.0003C5.25 42.49 8.90634 38.8337 13.4167 38.8337Z" stroke="#5C2574" stroke-width="10.3583" stroke-linecap="round" stroke-linejoin="round"/>
</svg>
